#format: frame checksums
#version: 2
#hash: MD5
#tb 0: 1001/30000
#media_type 0: video
#codec_id 0: rawvideo
#dimensions 0: 352x288
#sar 0: 1/1
#stream#, dts,        pts, duration,     size, hash
0,          0,          0,        1,   152064, a2e5c820fd9733e18f9349fb658ca281
0,          1,          1,        1,   152064, aa20a75be3a316193496706c9f760d08
0,          2,          2,        1,   152064, 95567be97a64d3c9efe45f2524116a2e
0,          3,          3,        1,   152064, 219e86cd6b3cca312856eead21776b1c
0,          4,          4,        1,   152064, 4a67fd359ca362398e97c15eb018a2bb
0,          5,          5,        1,   152064, 9916d4e359274d690827f0eb22547423
0,          6,          6,        1,   152064, a07785b52561150c48f1a8eff89d5d75
0,          7,          7,        1,   152064, a3382a92982953dfa20018e5ac975b51
0,          8,          8,        1,   152064, 911836989ca7b148438aa3ec7fc7e303
0,          9,          9,        1,   152064, 5627b981e3fc9e4401d35d3a5ab25917
